<?xml version="1.0" encoding="UTF-8" standalone="no"?>
<svg width="1023px" height="377px" viewBox="0 0 1023 377" version="1.1" xmlns="http://www.w3.org/2000/svg" xmlns:xlink="http://www.w3.org/1999/xlink" xmlns:sketch="http://www.bohemiancoding.com/sketch/ns">
    <!-- Generator: Sketch 3.3.2 (12043) - http://www.bohemiancoding.com/sketch -->
    <title>ergodox</title>
    <desc>Created with Sketch.</desc>
    <defs></defs>
    <g id="Page-1" stroke="none" stroke-width="1" fill="none" fill-rule="evenodd" sketch:type="MSPage">
        <g id="right" sketch:type="MSLayerGroup" transform="translate(524.000000, 0.000000)" fill="#D8D8D8">
            <g id="col7" transform="translate(423.000000, 11.000000)" sketch:type="MSShapeGroup">
                <rect id="7-5" x="1" y="209" width="50" height="50"></rect>
                <rect id="7-4" transform="translate(38.500000, 182.000000) rotate(-270.000000) translate(-38.500000, -182.000000) " x="13.5" y="144.5" width="50" height="75"></rect>
                <rect id="7-3" transform="translate(38.500000, 130.000000) rotate(-270.000000) translate(-38.500000, -130.000000) " x="13.5" y="92.5" width="50" height="75"></rect>
                <rect id="7-2" transform="translate(38.500000, 78.000000) rotate(-270.000000) translate(-38.500000, -78.000000) " x="13.5" y="40.5" width="50" height="75"></rect>
                <rect id="7-1" transform="translate(38.500000, 26.000000) rotate(-270.000000) translate(-38.500000, -26.000000) " x="13.5" y="-11.5" width="50" height="75"></rect>
            </g>
            <g id="col6" transform="translate(372.000000, 12.000000)" sketch:type="MSShapeGroup">
                <rect id="6-5" x="0" y="208" width="50" height="50"></rect>
                <rect id="6-4" x="0" y="156" width="50" height="50"></rect>
                <rect id="6-3" x="0" y="104" width="50" height="50"></rect>
                <rect id="6-2" x="0" y="52" width="50" height="50"></rect>
                <rect id="6-1" x="0" y="0" width="50" height="50"></rect>
            </g>
            <g id="col5" transform="translate(320.000000, 4.000000)" sketch:type="MSShapeGroup">
                <rect id="5-5" x="0" y="208" width="50" height="50"></rect>
                <rect id="5-4" x="0" y="156" width="50" height="50"></rect>
                <rect id="5-3" x="0" y="104" width="50" height="50"></rect>
                <rect id="5-2" x="0" y="52" width="50" height="50"></rect>
                <rect id="5-1" x="0" y="0" width="50" height="50"></rect>
            </g>
            <g id="col4" transform="translate(268.000000, 0.000000)" sketch:type="MSShapeGroup">
                <rect id="4-5" x="0" y="208" width="50" height="50"></rect>
                <rect id="4-4" x="0" y="156" width="50" height="50"></rect>
                <rect id="4-3" x="0" y="104" width="50" height="50"></rect>
                <rect id="4-2" x="0" y="52" width="50" height="50"></rect>
                <rect id="4-1" x="0" y="0" width="50" height="50"></rect>
            </g>
            <g id="col3" transform="translate(216.000000, 4.000000)" sketch:type="MSShapeGroup">
                <rect id="3-5" x="0" y="208" width="50" height="50"></rect>
                <rect id="3-4" x="0" y="156" width="50" height="50"></rect>
                <rect id="3-3" x="0" y="104" width="50" height="50"></rect>
                <path d="M0,52 L50,52 L50,102 L0,102 L0,52 Z" id="3-2"></path>
                <rect id="3-1" x="0" y="0" width="50" height="50"></rect>
            </g>
            <g id="col2" transform="translate(164.000000, 8.000000)" sketch:type="MSShapeGroup">
                <rect id="2-4" x="0" y="156" width="50" height="50"></rect>
                <rect id="2-3" x="0" y="104" width="50" height="50"></rect>
                <rect id="2-2" x="0" y="52" width="50" height="50"></rect>
                <rect id="2-1" x="0" y="0" width="50" height="50"></rect>
            </g>
            <g id="col1" transform="translate(112.000000, 8.000000)" sketch:type="MSShapeGroup">
                <rect id="1-3" x="0" y="131" width="50" height="75"></rect>
                <rect id="1-2" x="0" y="53" width="50" height="75"></rect>
                <rect id="1-1" x="0" y="0" width="50" height="50"></rect>
            </g>
            <g id="thumb" transform="translate(103.000000, 274.000000) rotate(-25.000000) translate(-103.000000, -274.000000) translate(26.000000, 197.000000)" sketch:type="MSShapeGroup">
                <rect id="2-2" x="52" y="53" width="50" height="100"></rect>
                <rect id="2-1" x="52" y="8.52651283e-14" width="50" height="50"></rect>
                <rect id="3-1" x="104" y="53" width="50" height="100"></rect>
                <rect id="1-3" x="0" y="104" width="50" height="50"></rect>
                <rect id="1-2" x="0" y="52" width="50" height="50"></rect>
                <rect id="1-1" x="9.9475983e-14" y="1.13686838e-13" width="50" height="50"></rect>
            </g>
        </g>
        <g id="left" sketch:type="MSLayerGroup" transform="translate(249.500000, 188.500000) scale(-1, 1) translate(-249.500000, -188.500000) " fill="#D8D8D8">
            <g id="col7" transform="translate(423.000000, 11.000000)" sketch:type="MSShapeGroup">
                <rect id="7-5" x="1" y="209" width="50" height="50"></rect>
                <rect id="7-4" transform="translate(38.500000, 182.000000) rotate(-270.000000) translate(-38.500000, -182.000000) " x="13.5" y="144.5" width="50" height="75"></rect>
                <rect id="7-3" transform="translate(38.500000, 130.000000) rotate(-270.000000) translate(-38.500000, -130.000000) " x="13.5" y="92.5" width="50" height="75"></rect>
                <rect id="7-2" transform="translate(38.500000, 78.000000) rotate(-270.000000) translate(-38.500000, -78.000000) " x="13.5" y="40.5" width="50" height="75"></rect>
                <rect id="7-1" transform="translate(38.500000, 26.000000) rotate(-270.000000) translate(-38.500000, -26.000000) " x="13.5" y="-11.5" width="50" height="75"></rect>
            </g>
            <g id="col6" transform="translate(372.000000, 12.000000)" sketch:type="MSShapeGroup">
                <rect id="6-5" x="0" y="208" width="50" height="50"></rect>
                <rect id="6-4" x="0" y="156" width="50" height="50"></rect>
                <rect id="6-3" x="0" y="104" width="50" height="50"></rect>
                <rect id="6-2" x="0" y="52" width="50" height="50"></rect>
                <rect id="6-1" x="0" y="0" width="50" height="50"></rect>
            </g>
            <g id="col5" transform="translate(320.000000, 4.000000)" sketch:type="MSShapeGroup">
                <rect id="5-5" x="0" y="208" width="50" height="50"></rect>
                <rect id="5-4" x="0" y="156" width="50" height="50"></rect>
                <rect id="5-3" x="0" y="104" width="50" height="50"></rect>
                <rect id="5-2" x="0" y="52" width="50" height="50"></rect>
                <rect id="5-1" x="0" y="0" width="50" height="50"></rect>
            </g>
            <g id="col4" transform="translate(268.000000, 0.000000)" sketch:type="MSShapeGroup">
                <rect id="4-5" x="0" y="208" width="50" height="50"></rect>
                <rect id="4-4" x="0" y="156" width="50" height="50"></rect>
                <rect id="4-3" x="0" y="104" width="50" height="50"></rect>
                <rect id="4-2" x="0" y="52" width="50" height="50"></rect>
                <rect id="4-1" x="0" y="0" width="50" height="50"></rect>
            </g>
            <g id="col3" transform="translate(216.000000, 4.000000)" sketch:type="MSShapeGroup">
                <rect id="3-5" x="0" y="208" width="50" height="50"></rect>
                <rect id="3-4" x="0" y="156" width="50" height="50"></rect>
                <rect id="3-3" x="0" y="104" width="50" height="50"></rect>
                <path d="M0,52 L50,52 L50,102 L0,102 L0,52 Z" id="3-2"></path>
                <rect id="3-1" x="0" y="0" width="50" height="50"></rect>
            </g>
            <g id="col2" transform="translate(164.000000, 8.000000)" sketch:type="MSShapeGroup">
                <rect id="2-4" x="0" y="156" width="50" height="50"></rect>
                <rect id="2-3" x="0" y="104" width="50" height="50"></rect>
                <rect id="2-2" x="0" y="52" width="50" height="50"></rect>
                <rect id="2-1" x="0" y="0" width="50" height="50"></rect>
            </g>
            <g id="col1" transform="translate(112.000000, 8.000000)" sketch:type="MSShapeGroup">
                <rect id="1-3" x="0" y="131" width="50" height="75"></rect>
                <rect id="1-2" x="0" y="53" width="50" height="75"></rect>
                <rect id="1-1" x="0" y="0" width="50" height="50"></rect>
            </g>
            <g id="thumb" transform="translate(103.000000, 274.000000) rotate(-25.000000) translate(-103.000000, -274.000000) translate(26.000000, 197.000000)" sketch:type="MSShapeGroup">
                <rect id="2-2" x="52" y="53" width="50" height="100"></rect>
                <rect id="2-1" x="52" y="8.52651283e-14" width="50" height="50"></rect>
                <rect id="3-1" x="104" y="53" width="50" height="100"></rect>
                <rect id="1-3" x="0" y="104" width="50" height="50"></rect>
                <rect id="1-2" x="0" y="52" width="50" height="50"></rect>
                <rect id="1-1" x="9.9475983e-14" y="1.13686838e-13" width="50" height="50"></rect>
            </g>
        </g>
    </g>
</svg>