<?xml version="1.0" encoding="UTF-8" standalone="no"?>
<svg width="1023px" height="377px" viewBox="0 0 1023 377" version="1.1" xmlns="http://www.w3.org/2000/svg" xmlns:xlink="http://www.w3.org/1999/xlink" xmlns:sketch="http://www.bohemiancoding.com/sketch/ns">
    <!-- Generator: Sketch 3.3.2 (12043) - http://www.bohemiancoding.com/sketch -->
    <title>ergodox</title>
    <desc>Created with Sketch.</desc>
    <defs></defs>
    <g id="Page-1" stroke="none" stroke-width="1" fill="none" fill-rule="evenodd" sketch:type="MSPage">
        <g id="right" sketch:type="MSLayerGroup" transform="translate(523.000000, 0.000000)" fill="#D8D8D8">
            <g id="col7" transform="translate(424.000000, 11.000000)" sketch:type="MSShapeGroup">
                <rect id="key72" x="1" y="209" width="50" height="50"></rect>
                <rect id="key67" transform="translate(38.500000, 182.000000) rotate(-270.000000) translate(-38.500000, -182.000000) " x="13.5" y="144.5" width="50" height="75"></rect>
                <rect id="key60" transform="translate(38.500000, 130.000000) rotate(-270.000000) translate(-38.500000, -130.000000) " x="13.5" y="92.5" width="50" height="75"></rect>
                <rect id="key54" transform="translate(38.500000, 78.000000) rotate(-270.000000) translate(-38.500000, -78.000000) " x="13.5" y="40.5" width="50" height="75"></rect>
                <rect id="key47" transform="translate(38.500000, 26.000000) rotate(-270.000000) translate(-38.500000, -26.000000) " x="13.5" y="-11.5" width="50" height="75"></rect>
            </g>
            <g id="col6" transform="translate(373.000000, 12.000000)" sketch:type="MSShapeGroup">
                <rect id="key71" x="0" y="208" width="50" height="50"></rect>
                <rect id="key66" x="0" y="156" width="50" height="50"></rect>
                <rect id="key59" x="0" y="104" width="50" height="50"></rect>
                <rect id="key53" x="0" y="52" width="50" height="50"></rect>
                <rect id="key46" x="0" y="0" width="50" height="50"></rect>
            </g>
            <g id="col5" transform="translate(321.000000, 4.000000)" sketch:type="MSShapeGroup">
                <rect id="key70" x="0" y="208" width="50" height="50"></rect>
                <rect id="key65" x="0" y="156" width="50" height="50"></rect>
                <rect id="key58" x="0" y="104" width="50" height="50"></rect>
                <rect id="key52" x="0" y="52" width="50" height="50"></rect>
                <rect id="key45" x="0" y="0" width="50" height="50"></rect>
            </g>
            <g id="col4" transform="translate(269.000000, 0.000000)" sketch:type="MSShapeGroup">
                <rect id="key69" x="0" y="208" width="50" height="50"></rect>
                <rect id="key64" x="0" y="156" width="50" height="50"></rect>
                <rect id="key57" x="0" y="104" width="50" height="50"></rect>
                <rect id="key51" x="0" y="52" width="50" height="50"></rect>
                <rect id="key44" x="0" y="0" width="50" height="50"></rect>
            </g>
            <g id="col3" transform="translate(217.000000, 4.000000)" sketch:type="MSShapeGroup">
                <rect id="key68" x="0" y="208" width="50" height="50"></rect>
                <rect id="key63" x="0" y="156" width="50" height="50"></rect>
                <rect id="key56" x="0" y="104" width="50" height="50"></rect>
                <path d="M0,52 L50,52 L50,102 L0,102 L0,52 Z" id="key50"></path>
                <rect id="key43" x="0" y="0" width="50" height="50"></rect>
            </g>
            <g id="col2" transform="translate(165.000000, 8.000000)" sketch:type="MSShapeGroup">
                <rect id="key62" x="0" y="156" width="50" height="50"></rect>
                <rect id="key55" x="0" y="104" width="50" height="50"></rect>
                <rect id="key49" x="0" y="52" width="50" height="50"></rect>
                <rect id="key42" x="0" y="0" width="50" height="50"></rect>
            </g>
            <g id="col1" transform="translate(113.000000, 8.000000)" sketch:type="MSShapeGroup">
                <rect id="key61" x="0" y="131" width="50" height="75"></rect>
                <rect id="key48" x="0" y="53" width="50" height="75"></rect>
                <rect id="key41" x="0" y="0" width="50" height="50"></rect>
            </g>
            <g id="thumb" transform="translate(103.546846, 274.211309) rotate(-25.000000) translate(-103.546846, -274.211309) translate(26.046846, 197.211309)" sketch:type="MSShapeGroup">
                <rect id="key79" x="53" y="53" width="50" height="100"></rect>
                <rect id="key74" x="53" y="5.68434189e-14" width="50" height="50"></rect>
                <rect id="key80" x="105" y="53" width="50" height="100"></rect>
                <rect id="key78" x="1" y="104" width="50" height="50"></rect>
                <rect id="key75" x="1" y="52" width="50" height="50"></rect>
                <rect id="key73" x="1" y="5.68434189e-14" width="50" height="50"></rect>
            </g>
        </g>
        <g id="left" sketch:type="MSLayerGroup" transform="translate(249.500000, 188.500000) scale(-1, 1) translate(-249.500000, -188.500000) " fill="#D8D8D8">
            <g id="col7" transform="translate(423.000000, 11.000000)" sketch:type="MSShapeGroup">
                <rect id="key28" x="1" y="209" width="50" height="50"></rect>
                <rect id="key21" transform="translate(38.500000, 182.000000) rotate(-270.000000) translate(-38.500000, -182.000000) " x="13.5" y="144.5" width="50" height="75"></rect>
                <rect id="key15" transform="translate(38.500000, 130.000000) rotate(-270.000000) translate(-38.500000, -130.000000) " x="13.5" y="92.5" width="50" height="75"></rect>
                <rect id="key8" transform="translate(38.500000, 78.000000) rotate(-270.000000) translate(-38.500000, -78.000000) " x="13.5" y="40.5" width="50" height="75"></rect>
                <rect id="key1" transform="translate(38.500000, 26.000000) rotate(-270.000000) translate(-38.500000, -26.000000) " x="13.5" y="-11.5" width="50" height="75"></rect>
            </g>
            <g id="col6" transform="translate(372.000000, 12.000000)" sketch:type="MSShapeGroup">
                <rect id="key29" x="0" y="208" width="50" height="50"></rect>
                <rect id="key22" x="0" y="156" width="50" height="50"></rect>
                <rect id="key16" x="0" y="104" width="50" height="50"></rect>
                <rect id="key9" x="0" y="52" width="50" height="50"></rect>
                <rect id="key2" x="0" y="0" width="50" height="50"></rect>
            </g>
            <g id="col5" transform="translate(320.000000, 4.000000)" sketch:type="MSShapeGroup">
                <rect id="key30" x="0" y="208" width="50" height="50"></rect>
                <rect id="key23" x="0" y="156" width="50" height="50"></rect>
                <rect id="key17" x="0" y="104" width="50" height="50"></rect>
                <rect id="key10" x="0" y="52" width="50" height="50"></rect>
                <rect id="key3" x="0" y="0" width="50" height="50"></rect>
            </g>
            <g id="col4" transform="translate(268.000000, 0.000000)" sketch:type="MSShapeGroup">
                <rect id="key31" x="0" y="208" width="50" height="50"></rect>
                <rect id="key24" x="0" y="156" width="50" height="50"></rect>
                <rect id="key18" x="0" y="104" width="50" height="50"></rect>
                <rect id="key11" x="0" y="52" width="50" height="50"></rect>
                <rect id="key4" x="0" y="0" width="50" height="50"></rect>
            </g>
            <g id="col3" transform="translate(216.000000, 4.000000)" sketch:type="MSShapeGroup">
                <rect id="key32" x="0" y="208" width="50" height="50"></rect>
                <rect id="key25" x="0" y="156" width="50" height="50"></rect>
                <rect id="key19" x="0" y="104" width="50" height="50"></rect>
                <path d="M0,52 L50,52 L50,102 L0,102 L0,52 Z" id="key12"></path>
                <rect id="key5" x="0" y="0" width="50" height="50"></rect>
            </g>
            <g id="col2" transform="translate(164.000000, 8.000000)" sketch:type="MSShapeGroup">
                <rect id="key26" x="0" y="156" width="50" height="50"></rect>
                <rect id="key20" x="0" y="104" width="50" height="50"></rect>
                <rect id="key13" x="0" y="52" width="50" height="50"></rect>
                <rect id="key6" x="0" y="0" width="50" height="50"></rect>
            </g>
            <g id="col1" transform="translate(112.000000, 8.000000)" sketch:type="MSShapeGroup">
                <rect id="key27" x="0" y="131" width="50" height="75"></rect>
                <rect id="key14" x="0" y="53" width="50" height="75"></rect>
                <rect id="key7" x="0" y="0" width="50" height="50"></rect>
            </g>
            <g id="thumb" transform="translate(103.000000, 274.000000) rotate(-25.000000) translate(-103.000000, -274.000000) translate(26.000000, 197.000000)" sketch:type="MSShapeGroup">
                <rect id="key39" x="52" y="53" width="50" height="100"></rect>
                <rect id="key33" x="52" y="8.52651283e-14" width="50" height="50"></rect>
                <rect id="key38" x="104" y="53" width="50" height="100"></rect>
                <rect id="key40" x="0" y="104" width="50" height="50"></rect>
                <rect id="key37" x="0" y="52" width="50" height="50"></rect>
                <rect id="key34" x="9.9475983e-14" y="1.13686838e-13" width="50" height="50"></rect>
            </g>
        </g>
    </g>
</svg>